<svg width="32" height="27" viewBox="0 0 32 27" fill="none" xmlns="http://www.w3.org/2000/svg">
<path d="M25.8126 10.7551H11.8309C11.5456 10.7551 11.2721 10.8684 11.0704 11.0701C10.8687 11.2718 10.7554 11.5454 10.7554 11.8306C10.7554 12.1159 10.8687 12.3895 11.0704 12.5912C11.2721 12.7929 11.5456 12.9062 11.8309 12.9062H25.8126C26.0979 12.9062 26.3715 12.7929 26.5732 12.5912C26.7749 12.3895 26.8882 12.1159 26.8882 11.8306C26.8882 11.5454 26.7749 11.2718 26.5732 11.0701C26.3715 10.8684 26.0979 10.7551 25.8126 10.7551Z" fill="white"/>
<path d="M31.061 6.56067C30.7586 6.19111 30.3779 5.89329 29.9464 5.6887C29.5149 5.48412 29.0433 5.37786 28.5658 5.3776H7.33504L6.77577 2.592C6.62919 1.86123 6.23413 1.20374 5.65772 0.731232C5.0813 0.258727 4.35908 0.000350626 3.61375 0H1.07552C0.790274 0 0.516711 0.113313 0.315012 0.315012C0.113313 0.516711 0 0.790274 0 1.07552C0 1.36077 0.113313 1.63433 0.315012 1.83603C0.516711 2.03773 0.790274 2.15104 1.07552 2.15104H3.61375C3.86536 2.14596 4.11079 2.22929 4.3073 2.3865C4.50382 2.54371 4.63898 2.76486 4.68926 3.01146L8.2815 21.0694C8.42808 21.8002 8.82314 22.4577 9.39956 22.9302C9.97597 23.4027 10.6982 23.6611 11.4435 23.6614H27.9635C28.2488 23.6614 28.5223 23.5481 28.724 23.3464C28.9257 23.1447 29.039 22.8712 29.039 22.5859C29.039 22.3007 28.9257 22.0271 28.724 21.8254C28.5223 21.6237 28.2488 21.5104 27.9635 21.5104H11.4435C11.1919 21.5155 10.9465 21.4321 10.75 21.2749C10.5535 21.1177 10.4183 20.8966 10.368 20.65L9.91629 18.2838H27.2752C28.0205 18.2835 28.7427 18.0251 29.3191 17.5526C29.8956 17.0801 30.2906 16.4226 30.4372 15.6918L31.7278 9.23871C31.8216 8.77079 31.8105 8.28789 31.6952 7.8248C31.5799 7.36171 31.3633 6.92996 31.061 6.56067ZM28.3292 15.2724C28.2789 15.519 28.1437 15.7401 27.9472 15.8973C27.7507 16.0545 27.5053 16.1379 27.2537 16.1328H9.48608L7.76525 7.52864H28.5658C28.7247 7.52969 28.8813 7.56592 29.0245 7.63472C29.1677 7.70353 29.2939 7.8032 29.3939 7.92658C29.4953 8.04937 29.5682 8.19315 29.6072 8.34753C29.6463 8.5019 29.6506 8.66302 29.6198 8.81926L28.3292 15.2724Z" fill="white"/>
<path d="M25.8123 26.8881C26.4063 26.8881 26.8879 26.4066 26.8879 25.8126C26.8879 25.2186 26.4063 24.7371 25.8123 24.7371C25.2183 24.7371 24.7368 25.2186 24.7368 25.8126C24.7368 26.4066 25.2183 26.8881 25.8123 26.8881Z" fill="white"/>
<path d="M12.9061 26.8881C13.5001 26.8881 13.9816 26.4066 13.9816 25.8126C13.9816 25.2186 13.5001 24.7371 12.9061 24.7371C12.3121 24.7371 11.8306 25.2186 11.8306 25.8126C11.8306 26.4066 12.3121 26.8881 12.9061 26.8881Z" fill="white"/>
</svg>
