<svg width="25" height="21" viewBox="0 0 25 21" fill="none" xmlns="http://www.w3.org/2000/svg">
<path d="M17.0638 0C16.1146 0.00110397 15.1756 0.196675 14.3048 0.574649C13.4341 0.952624 12.65 1.50499 12.0009 2.19767C11.0498 1.18251 9.81537 0.476729 8.45801 0.171959C7.10066 -0.132811 5.68303 -0.0224966 4.38916 0.488582C3.09529 0.999661 1.98494 1.8879 1.20225 3.03799C0.41956 4.18807 0.000684916 5.54689 0 6.93804C0 13.8461 11.1421 20.6266 11.6259 20.8929C11.7426 20.963 11.8761 21 12.0122 21C12.1483 21 12.2818 20.963 12.3985 20.8929C12.8598 20.6266 24.0019 13.8461 24.0019 6.93804C23.9999 5.09857 23.2683 3.335 21.9676 2.0343C20.6669 0.733593 18.9033 0.0019854 17.0638 0ZM12.0009 19.3665C10.062 18.1289 1.50012 12.346 1.50012 6.93804C1.50108 5.78293 1.86984 4.65813 2.55296 3.72666C3.23607 2.7952 4.19805 2.10545 5.29948 1.75739C6.4009 1.40933 7.58455 1.42104 8.67887 1.79082C9.77319 2.1606 10.7213 2.86925 11.3859 3.81405C11.4551 3.91232 11.547 3.99252 11.6537 4.04787C11.7604 4.10323 11.8788 4.13213 11.9991 4.13213C12.1193 4.13213 12.2377 4.10323 12.3444 4.04787C12.4512 3.99252 12.543 3.91232 12.6122 3.81405C13.2762 2.86762 14.2246 2.15745 15.3196 1.78662C16.4147 1.4158 17.5994 1.40363 18.7018 1.75187C19.8043 2.10012 20.767 2.79066 21.4503 3.72324C22.1336 4.65583 22.5019 5.78192 22.5018 6.93804C22.5018 12.3422 13.9398 18.1252 12.0009 19.3665Z" fill="white"/>
</svg>
