<svg width="32" height="32" viewBox="0 0 32 32" fill="none" xmlns="http://www.w3.org/2000/svg">
<path d="M31.5 16C31.5 24.5604 24.5604 31.5 16 31.5C7.43959 31.5 0.5 24.5604 0.5 16C0.5 7.43959 7.43959 0.5 16 0.5C24.5604 0.5 31.5 7.43959 31.5 16Z" stroke="white"/>
<path d="M18.5376 9H13.0469C10.8154 9 9 10.8154 9 13.0469V18.5376C9 20.769 10.8154 22.5845 13.0469 22.5845H18.5376C20.769 22.5845 22.5845 20.769 22.5845 18.5376V13.0469C22.5844 10.8154 20.769 9 18.5376 9ZM21.2179 18.5376C21.2179 20.0179 20.0179 21.2179 18.5376 21.2179H13.0469C11.5666 21.2179 10.3666 20.0179 10.3666 18.5376V13.0469C10.3666 11.5666 11.5666 10.3666 13.0469 10.3666H18.5376C20.0179 10.3666 21.2179 11.5666 21.2179 13.0469V18.5376Z" fill="white"/>
<path d="M15.7922 12.2788C13.8549 12.2788 12.2788 13.8549 12.2788 15.7922C12.2788 17.7295 13.8549 19.3056 15.7922 19.3056C17.7295 19.3056 19.3057 17.7295 19.3057 15.7922C19.3057 13.8549 17.7295 12.2788 15.7922 12.2788ZM15.7922 17.9391C14.6066 17.9391 13.6454 16.9779 13.6454 15.7922C13.6454 14.6066 14.6066 13.6454 15.7922 13.6454C16.9779 13.6454 17.9391 14.6066 17.9391 15.7922C17.9391 16.9779 16.9779 17.9391 15.7922 17.9391Z" fill="white"/>
<path d="M19.3126 13.1471C19.7774 13.1471 20.1543 12.7702 20.1543 12.3053C20.1543 11.8405 19.7774 11.4636 19.3126 11.4636C18.8477 11.4636 18.4708 11.8405 18.4708 12.3053C18.4708 12.7702 18.8477 13.1471 19.3126 13.1471Z" fill="white"/>
</svg>
