<svg width="19" height="22" viewBox="0 0 19 22" fill="none" xmlns="http://www.w3.org/2000/svg">
<path d="M9.27666 11.8542C9.29944 11.8542 9.32222 11.8542 9.34955 11.8542C9.35866 11.8542 9.36778 11.8542 9.37689 11.8542C9.39055 11.8542 9.40878 11.8542 9.42245 11.8542C10.7573 11.8314 11.837 11.3622 12.6343 10.4647C14.3883 8.48747 14.0967 5.09795 14.0648 4.77449C13.9509 2.34624 12.8029 1.18451 11.8552 0.642369C11.1491 0.236902 10.3245 0.0182232 9.40422 0H9.37233C9.36778 0 9.35866 0 9.35411 0H9.32677C8.82108 0 7.82791 0.0820046 6.87575 0.624146C5.91903 1.16629 4.75274 2.32802 4.63885 4.77449C4.60696 5.09795 4.31538 8.48747 6.06937 10.4647C6.86208 11.3622 7.94181 11.8314 9.27666 11.8542ZM5.85525 4.88838C5.85525 4.87472 5.8598 4.86105 5.8598 4.85194C6.01014 1.58542 8.32905 1.23462 9.32222 1.23462H9.34044C9.34955 1.23462 9.36322 1.23462 9.37689 1.23462C10.607 1.26196 12.6981 1.7631 12.8393 4.85194C12.8393 4.8656 12.8393 4.87927 12.8439 4.88838C12.8484 4.92027 13.1673 8.01822 11.7186 9.6492C11.1445 10.2961 10.3792 10.615 9.37233 10.6241C9.36322 10.6241 9.35866 10.6241 9.34955 10.6241C9.34044 10.6241 9.33589 10.6241 9.32677 10.6241C8.3245 10.615 7.55456 10.2961 6.98509 9.6492C5.5409 8.02734 5.85069 4.91572 5.85525 4.88838Z" fill="white"/>
<path d="M18.7119 17.476C18.7119 17.4714 18.7119 17.4669 18.7119 17.4623C18.7119 17.4258 18.7074 17.3894 18.7074 17.3484C18.6801 16.4463 18.6208 14.337 16.6436 13.6628C16.6299 13.6582 16.6117 13.6536 16.5981 13.6491C14.5434 13.1252 12.835 11.9407 12.8167 11.927C12.5388 11.7311 12.1561 11.7994 11.9602 12.0773C11.7643 12.3552 11.8327 12.7379 12.1106 12.9338C12.188 12.9885 14.0012 14.2505 16.27 14.8336C17.3315 15.2117 17.45 16.3461 17.4819 17.3848C17.4819 17.4258 17.4819 17.4623 17.4864 17.4987C17.491 17.9088 17.4637 18.542 17.3908 18.9065C16.6527 19.3256 13.7598 20.7744 9.35887 20.7744C4.97618 20.7744 2.06502 19.3211 1.32242 18.9019C1.24953 18.5375 1.21764 17.9042 1.22675 17.4942C1.22675 17.4577 1.23131 17.4213 1.23131 17.3803C1.2632 16.3416 1.38165 15.2072 2.44315 14.829C4.71195 14.2459 6.52516 12.9794 6.60261 12.9293C6.88051 12.7334 6.94885 12.3507 6.75295 12.0728C6.55705 11.7949 6.17436 11.7265 5.89646 11.9224C5.87823 11.9361 4.17892 13.1206 2.11514 13.6445C2.09691 13.6491 2.08324 13.6536 2.06958 13.6582C0.0923562 14.337 0.0331307 16.4464 0.00579584 17.3438C0.00579584 17.3848 0.00579574 17.4213 0.00123993 17.4577C0.00123993 17.4623 0.00123993 17.4669 0.00123993 17.4714C-0.00331588 17.7083 -0.00787159 18.9247 0.233586 19.5352C0.279144 19.6536 0.361149 19.7539 0.470488 19.8222C0.607163 19.9133 3.88279 21.9999 9.36343 21.9999C14.8441 21.9999 18.1197 19.9088 18.2564 19.8222C18.3611 19.7539 18.4477 19.6536 18.4933 19.5352C18.7211 18.9293 18.7165 17.7129 18.7119 17.476Z" fill="white"/>
</svg>
